 <svg  version="1.0" xmlns="http://www.w3.org/2000/svg"  width="600.000000pt" height="294.000000pt" viewBox="0 0 600.000000 294.000000"  preserveAspectRatio="xMidYMid meet">  <g transform="translate(0.000000,294.000000) scale(0.100000,-0.100000)" fill="#800040" stroke="none"> <path d="M2134 1972 c-16 -11 -30 -41 -63 -134 -15 -45 -43 -121 -60 -168 -18 -47 -36 -96 -41 -110 -5 -14 -23 -63 -40 -110 -18 -47 -50 -134 -71 -195 -22 -60 -54 -145 -71 -187 -18 -43 -28 -81 -24 -85 10 -11 168 -12 187 -2 9 5 29 46 43 93 15 47 34 90 41 96 9 8 76 11 207 11 191 -1 193 -1 215 -25 11 -14 24 -43 28 -65 4 -23 11 -43 16 -47 5 -3 9 -13 9 -23 0 -33 28 -45 114 -47 46 -1 89 2 96 6 13 8 1 50 -76 250 -20 52 -49 129 -64 170 -15 41 -42 113 -59 160 -68 182 -84 228 -111 303 -40 117 -41 117 -162 117 -57 0 -108 -4 -114 -8z m149 -307 c34 -83 97 -274 97 -293 0 -11 -7 -23 -16 -26 -25 -10 -227 -7 -244 4 -12 7 -12 17 -3 57 17 75 93 286 111 306 19 21 30 12 55 -48z"/> <path d="M2923 1974 c-10 -4 -13 -114 -13 -499 l0 -493 28 -6 c32 -7 129 -7 155 0 15 5 17 23 17 199 0 167 2 194 16 199 21 8 229 8 289 -1 35 -4 56 -15 80 -39 l33 -33 7 -145 c5 -89 12 -152 20 -162 10 -14 30 -18 106 -19 98 -1 119 7 93 36 -11 12 -16 53 -21 155 -7 157 -16 187 -73 242 -47 45 -46 58 10 97 91 63 120 218 60 322 -33 58 -73 92 -143 123 -44 20 -70 22 -350 26 -166 2 -308 1 -314 -2z m558 -177 c50 -22 69 -55 69 -120 0 -63 -24 -101 -76 -123 -39 -16 -320 -20 -344 -4 -12 7 -15 34 -16 121 -2 156 -6 152 185 147 105 -4 156 -9 182 -21z"/> <path d="M4018 1969 c-17 -9 -18 -43 -18 -492 0 -362 3 -486 12 -495 14 -14 126 -16 162 -2 l26 10 0 150 c0 92 4 160 11 173 20 39 82 97 104 97 21 0 55 -28 55 -44 0 -4 23 -38 50 -74 66 -88 169 -229 200 -274 27 -41 38 -44 175 -43 98 0 114 11 77 50 -10 11 -33 42 -52 68 -19 27 -48 65 -63 85 -15 20 -38 51 -50 68 -12 18 -62 85 -112 149 -49 64 -98 128 -108 141 -13 17 -16 28 -8 41 8 16 264 274 344 348 18 16 27 32 23 41 -5 13 -23 15 -111 12 l-106 -3 -192 -193 c-106 -106 -195 -195 -199 -199 -4 -3 -14 0 -23 7 -12 10 -15 43 -15 191 0 129 -3 180 -12 185 -19 12 -151 14 -170 3z"/> <path d="M730 501 l-105 -6 -3 -188 -2 -187 27 -11 c31 -12 247 -9 259 4 5 4 3 16 -2 25 -9 14 -30 18 -108 20 -91 3 -97 4 -108 27 -15 33 -2 92 22 100 10 3 49 5 87 3 73 -2 93 4 93 28 0 23 -44 34 -113 27 -52 -5 -66 -3 -81 12 -20 20 -16 73 7 87 6 4 49 8 93 8 63 0 85 4 95 16 11 14 10 18 -6 30 -10 8 -26 13 -34 12 -9 -1 -63 -4 -121 -7z"/> <path d="M1545 497 c-29 -22 -4 -47 46 -47 25 0 41 -6 47 -17 5 -9 7 -73 4 -143 -5 -139 -1 -175 24 -184 38 -14 44 10 44 169 0 170 1 172 65 177 33 2 41 7 43 26 3 22 2 22 -105 22 -59 0 -117 3 -128 6 -11 3 -29 -2 -40 -9z"/> <path d="M2015 501 l-110 -6 -3 -185 c-2 -165 -1 -186 15 -197 20 -16 240 -18 263 -3 12 7 13 13 4 27 -10 15 -26 18 -102 18 -57 0 -95 4 -103 12 -16 16 -22 79 -9 104 10 19 17 20 75 14 80 -9 125 0 125 25 0 29 -29 39 -96 35 -32 -2 -69 -1 -82 2 -27 6 -39 45 -23 79 10 23 15 24 100 24 80 0 92 2 101 20 9 17 7 22 -15 30 -15 6 -27 9 -28 8 -1 -1 -51 -4 -112 -7z"/> <path d="M2360 492 c-19 -9 -48 -37 -65 -62 -28 -41 -30 -52 -30 -131 0 -79 2 -89 29 -123 58 -77 130 -95 213 -55 45 22 77 66 67 93 -10 27 -35 18 -75 -25 -35 -38 -41 -41 -76 -36 -25 4 -48 17 -65 37 -25 27 -28 37 -28 106 0 91 22 136 74 154 39 13 60 6 104 -32 38 -32 45 -34 62 -13 11 13 10 20 -6 42 -45 59 -136 80 -204 45z"/> <path d="M3300 497 c-29 -14 -70 -72 -70 -98 0 -23 45 -76 79 -94 15 -7 43 -16 64 -20 115 -22 116 -135 1 -135 -30 0 -44 7 -74 40 -55 59 -96 51 -65 -12 24 -52 71 -78 141 -78 73 0 126 31 144 85 22 68 -19 122 -117 154 -86 28 -118 51 -109 78 8 26 58 47 89 39 13 -3 41 -19 62 -36 35 -28 40 -29 54 -15 14 14 14 18 -1 42 -33 55 -136 81 -198 50z"/> <path d="M4048 499 c-31 -12 -68 -66 -68 -98 0 -52 44 -88 155 -125 47 -17 62 -27 69 -48 14 -40 -23 -78 -77 -78 -32 0 -45 7 -79 41 -41 41 -70 47 -76 16 -10 -51 67 -107 146 -107 76 0 120 24 144 77 18 40 18 45 3 77 -9 19 -24 40 -33 48 -20 17 -85 44 -125 53 -32 6 -67 38 -67 61 0 20 66 47 96 40 13 -4 35 -17 50 -31 57 -53 94 -16 41 41 -29 32 -39 36 -92 40 -33 2 -72 -1 -87 -7z"/> <path d="M4348 499 c-5 -4 -8 -15 -6 -25 2 -14 13 -20 43 -22 64 -5 65 -8 65 -176 0 -105 4 -156 12 -164 15 -15 23 -15 40 2 10 10 13 47 11 156 -1 79 3 152 8 161 6 12 24 19 57 21 40 3 47 6 50 26 2 13 -2 22 -10 22 -164 4 -262 4 -270 -1z"/> <path d="M5605 495 c-41 -22 -65 -54 -65 -90 0 -57 41 -91 158 -130 65 -21 84 -50 59 -89 -12 -18 -29 -27 -61 -31 -50 -8 -80 6 -100 47 -15 31 -52 36 -61 8 -16 -52 61 -110 145 -110 67 0 97 14 127 59 52 77 20 135 -100 181 -45 18 -88 37 -94 42 -22 18 -14 47 17 63 43 22 65 19 104 -16 62 -54 106 -12 47 45 -37 35 -128 47 -176 21z"/> <path d="M157 493 c-4 -3 -7 -91 -7 -194 0 -163 2 -188 16 -193 33 -13 43 12 46 112 2 79 6 97 19 100 19 3 59 -92 59 -140 0 -56 33 -88 71 -68 10 6 19 19 19 29 0 35 41 186 55 200 27 28 35 2 33 -112 l-3 -112 27 -3 c21 -3 28 1 29 15 2 94 -2 357 -6 364 -9 14 -81 11 -94 -4 -6 -8 -20 -52 -31 -98 -25 -104 -36 -129 -54 -129 -14 0 -34 56 -51 140 -4 19 -13 50 -21 68 -12 29 -17 32 -57 32 -24 0 -47 -3 -50 -7z"/> <path d="M996 492 c-2 -4 -3 -90 -2 -191 3 -141 7 -186 17 -193 8 -5 56 -7 106 -4 104 5 130 18 170 84 18 29 23 52 23 110 0 87 -15 127 -64 170 -36 32 -38 32 -141 32 -57 0 -106 -4 -109 -8z m191 -58 c44 -9 70 -100 53 -182 -14 -63 -37 -84 -100 -90 -77 -7 -80 -1 -79 145 2 151 3 152 126 127z"/> <path d="M1400 307 c0 -164 2 -196 15 -201 8 -3 22 -3 30 0 13 5 15 34 13 198 l-3 191 -27 3 -28 3 0 -194z"/> <path d="M2687 494 c-13 -13 -8 -369 5 -382 16 -16 23 -15 42 3 12 12 14 30 10 78 -3 34 -1 68 4 76 6 8 35 15 75 17 88 5 97 -4 97 -101 0 -56 4 -74 15 -79 21 -8 45 3 46 23 1 16 1 349 0 364 -1 5 -13 7 -28 5 -27 -3 -28 -5 -31 -70 -2 -52 -7 -70 -20 -77 -26 -13 -140 -11 -151 3 -6 6 -11 41 -13 76 -3 57 -6 65 -23 68 -12 2 -24 0 -28 -4z"/> <path d="M3590 490 c0 -5 20 -41 45 -79 25 -38 45 -73 45 -77 0 -4 8 -16 17 -26 12 -14 18 -43 21 -108 3 -67 8 -90 19 -95 31 -11 43 15 43 94 0 72 2 81 38 137 65 100 92 150 85 157 -19 20 -54 5 -78 -33 -14 -22 -25 -43 -25 -47 0 -5 -11 -21 -25 -38 l-25 -30 -17 22 c-10 12 -33 47 -51 77 -28 48 -38 56 -63 56 -16 0 -29 -4 -29 -10z"/> <path d="M4706 484 c-3 -9 -6 -94 -6 -190 l0 -174 26 -10 c33 -13 234 -13 254 0 12 7 12 13 4 27 -9 15 -27 18 -104 20 -51 1 -97 6 -102 11 -15 15 -14 102 2 113 8 6 48 8 88 6 78 -4 108 7 97 35 -8 20 -50 31 -113 28 -83 -4 -82 -5 -82 44 0 25 5 48 12 52 7 4 51 7 99 5 73 -2 87 0 93 14 3 9 4 21 0 26 -3 5 -63 9 -134 9 -107 0 -129 -3 -134 -16z"/> <path d="M5081 482 c-9 -18 -13 -321 -4 -354 3 -11 14 -18 29 -18 24 0 24 1 24 89 0 97 5 121 25 121 16 0 50 -87 59 -152 5 -32 14 -51 27 -58 37 -20 53 2 78 109 13 55 29 108 36 117 25 35 35 5 35 -112 l0 -115 28 3 27 3 1 170 c2 225 5 215 -56 215 -46 0 -50 -2 -56 -27 -3 -16 -12 -48 -20 -72 -8 -25 -14 -54 -14 -66 0 -23 -26 -65 -41 -65 -14 0 -35 53 -54 135 -8 38 -20 75 -26 82 -17 20 -86 17 -98 -5z"/> </g> </svg> 