<svg xmlns="http://www.w3.org/2000/svg" xmlns:xlink="http://www.w3.org/1999/xlink" id="svg" version="1.1" viewBox="26.08 22.82 346.48 355.18"><g id="svgg"><path id="path0" d="M197.000 23.698 C 196.340 24.178,195.663 24.790,195.496 25.058 C 194.865 26.066,189.966 31.450,184.700 36.922 C 182.995 38.693,181.600 40.192,181.600 40.252 C 181.600 40.311,178.855 43.138,175.500 46.534 C 166.791 55.348,159.600 62.775,159.600 62.956 C 159.600 63.270,150.256 72.400,149.934 72.400 C 149.750 72.400,149.600 72.575,149.600 72.790 C 149.600 73.004,146.264 76.536,142.188 80.639 C 138.111 84.742,134.594 88.437,134.373 88.850 C 134.153 89.262,133.708 89.600,133.386 89.600 C 133.064 89.600,132.800 89.758,132.800 89.952 C 132.800 90.145,131.675 91.465,130.300 92.885 C 128.925 94.305,126.863 96.442,125.717 97.633 C 124.572 98.825,122.772 100.654,121.717 101.698 C 120.663 102.742,118.000 105.510,115.800 107.849 C 113.600 110.188,107.480 116.458,102.200 121.782 C 96.920 127.106,88.370 135.825,83.200 141.157 C 78.030 146.489,69.795 154.909,64.900 159.868 C 60.005 164.827,56.000 169.045,56.000 169.242 C 56.000 169.439,55.840 169.600,55.645 169.600 C 55.261 169.600,51.600 173.093,51.600 173.458 C 51.600 173.580,46.004 179.249,39.163 186.056 C 26.241 198.916,25.346 200.031,26.394 201.988 C 26.629 202.428,31.497 207.489,37.211 213.234 C 42.925 218.979,47.600 223.842,47.600 224.040 C 47.600 224.238,47.793 224.400,48.029 224.400 C 48.582 224.400,49.600 225.418,49.600 225.971 C 49.600 226.207,49.793 226.400,50.029 226.400 C 50.552 226.400,51.600 227.406,51.600 227.909 C 51.600 230.034,57.119 232.543,58.400 231.000 C 58.674 230.670,59.125 230.400,59.403 230.400 C 59.681 230.400,60.176 229.995,60.503 229.500 C 60.830 229.005,62.291 227.381,63.749 225.890 C 65.207 224.400,66.400 223.125,66.400 223.057 C 66.400 222.990,70.945 218.324,76.500 212.688 C 82.055 207.053,91.730 197.205,98.000 190.804 C 104.270 184.403,113.225 175.282,117.900 170.536 C 122.575 165.789,126.400 161.863,126.400 161.811 C 126.400 161.729,134.257 153.719,154.970 132.686 C 157.957 129.654,160.400 127.111,160.400 127.035 C 160.400 126.960,164.045 123.191,168.500 118.660 C 172.955 114.129,178.730 108.212,181.333 105.511 C 183.936 102.810,192.891 93.721,201.233 85.313 C 209.575 76.905,216.400 69.930,216.400 69.813 C 216.400 69.426,219.592 66.400,220.000 66.400 C 220.220 66.400,220.400 66.225,220.400 66.011 C 220.400 65.503,227.503 58.400,228.011 58.400 C 228.225 58.400,228.400 58.173,228.400 57.895 C 228.400 57.617,228.850 57.052,229.400 56.639 C 231.935 54.735,231.456 54.000,220.300 42.679 C 208.230 30.431,204.400 26.420,204.400 26.026 C 204.400 25.526,202.040 23.600,201.427 23.600 C 201.108 23.600,200.736 23.420,200.600 23.200 C 200.178 22.518,198.258 22.783,197.000 23.698 M237.541 70.528 C 233.340 74.709,229.600 78.811,229.600 79.236 C 229.600 79.436,229.407 79.600,229.171 79.600 C 228.750 79.600,227.600 80.569,227.600 80.924 C 227.600 81.023,225.620 83.103,223.200 85.546 C 220.780 87.990,218.800 90.064,218.800 90.155 C 218.800 90.247,215.425 93.737,211.300 97.910 C 207.175 102.084,200.200 109.216,195.800 113.759 C 191.400 118.302,183.975 125.879,179.300 130.596 C 174.625 135.313,170.800 139.359,170.800 139.586 C 170.800 139.814,170.575 139.955,170.300 139.900 C 170.025 139.845,169.845 140.025,169.900 140.300 C 169.955 140.575,169.835 140.800,169.633 140.800 C 169.431 140.800,167.721 142.331,165.833 144.202 C 162.666 147.340,162.036 148.371,162.410 149.800 C 162.467 150.020,162.490 150.611,162.461 151.114 C 162.431 151.616,162.675 152.131,163.003 152.257 C 163.332 152.383,163.600 152.646,163.600 152.843 C 163.600 153.208,166.644 156.400,166.993 156.400 C 167.099 156.400,168.134 157.412,169.293 158.650 C 170.452 159.887,173.920 163.465,177.000 166.601 C 180.080 169.737,187.280 177.111,193.000 182.989 C 198.720 188.867,205.740 196.060,208.600 198.975 C 211.460 201.890,217.130 207.746,221.200 211.988 C 225.270 216.230,230.805 221.933,233.500 224.661 C 236.195 227.388,238.400 229.796,238.400 230.010 C 238.400 230.225,238.577 230.400,238.793 230.400 C 239.009 230.400,240.134 231.410,241.293 232.645 C 245.721 237.362,246.783 238.400,247.185 238.400 C 247.413 238.400,247.600 238.593,247.600 238.829 C 247.600 239.382,248.618 240.400,249.171 240.400 C 249.407 240.400,249.600 240.597,249.600 240.837 C 249.600 241.078,251.985 243.662,254.900 246.579 C 257.815 249.497,261.201 252.945,262.425 254.242 C 263.648 255.539,265.898 257.783,267.425 259.229 C 268.951 260.675,271.315 263.105,272.678 264.629 C 274.041 266.153,277.101 269.403,279.478 271.851 C 281.855 274.298,285.126 277.673,286.747 279.351 C 288.367 281.028,289.927 282.400,290.213 282.400 C 290.499 282.400,290.815 282.625,290.914 282.900 C 291.059 283.300,291.265 283.300,291.942 282.900 C 292.408 282.625,293.017 282.400,293.295 282.399 C 293.573 282.399,294.790 281.292,296.000 279.940 C 297.210 278.589,299.145 276.550,300.300 275.410 C 301.455 274.271,302.400 273.127,302.400 272.869 C 302.400 272.611,302.558 272.400,302.752 272.400 C 303.112 272.400,306.400 269.350,306.400 269.015 C 306.400 268.913,313.600 261.621,322.400 252.810 C 331.200 243.999,338.400 236.643,338.400 236.463 C 338.400 236.283,338.850 235.894,339.400 235.600 C 339.950 235.306,340.400 234.920,340.400 234.743 C 340.400 234.566,347.555 227.211,356.300 218.398 C 372.053 202.523,372.900 201.540,372.488 199.600 C 372.268 198.558,358.309 184.400,357.503 184.400 C 357.263 184.400,357.172 184.295,357.300 184.167 C 357.604 183.863,356.140 182.400,355.533 182.400 C 355.277 182.400,355.172 182.294,355.301 182.165 C 355.430 182.036,354.380 180.798,352.968 179.413 C 351.556 178.028,350.400 176.766,350.400 176.610 C 350.400 176.453,348.150 174.091,345.400 171.361 C 342.650 168.631,340.400 166.301,340.400 166.184 C 340.400 166.067,337.025 162.551,332.900 158.369 C 328.775 154.188,322.739 148.029,319.488 144.683 C 307.237 132.079,299.149 124.000,298.781 124.000 C 298.571 124.000,298.400 123.730,298.400 123.400 C 298.400 123.070,298.130 122.800,297.800 122.800 C 297.470 122.800,297.200 122.613,297.200 122.384 C 297.200 121.836,291.943 116.571,291.524 116.700 C 291.346 116.755,291.245 116.643,291.300 116.450 C 291.355 116.258,290.275 114.981,288.900 113.613 C 287.525 112.246,286.400 111.068,286.400 110.997 C 286.400 110.664,279.133 103.600,278.790 103.600 C 278.576 103.600,278.400 103.426,278.400 103.214 C 278.400 102.748,274.400 98.454,267.500 91.510 C 264.695 88.688,262.400 86.331,262.400 86.273 C 262.400 86.215,259.655 83.360,256.300 79.929 C 252.945 76.498,248.874 72.321,247.253 70.646 C 243.062 66.313,241.790 66.298,237.541 70.528 M256.523 83.210 C 269.425 96.323,298.642 126.201,303.213 130.954 C 305.516 133.349,309.712 137.669,312.538 140.554 C 315.364 143.439,324.544 152.816,332.938 161.392 C 341.332 169.967,349.820 178.633,351.800 180.648 C 360.252 189.251,370.606 200.017,370.700 200.300 C 370.756 200.468,367.811 203.665,364.155 207.403 C 360.499 211.141,352.533 219.319,346.454 225.575 C 333.806 238.591,325.134 247.423,305.509 267.278 L 291.619 281.331 284.973 274.565 C 281.318 270.844,274.879 264.237,270.664 259.881 C 266.449 255.526,259.605 248.506,255.455 244.281 C 251.305 240.057,244.914 233.540,241.253 229.800 C 237.592 226.060,229.198 217.487,222.598 210.750 C 194.123 181.676,183.867 171.172,180.542 167.675 C 178.594 165.626,173.985 160.897,170.300 157.166 C 166.615 153.436,163.600 150.175,163.600 149.922 C 163.600 149.668,164.903 148.097,166.496 146.430 C 173.955 138.626,189.422 122.730,199.683 112.322 C 205.907 106.009,211.699 100.069,212.554 99.122 C 213.409 98.175,220.486 90.978,228.279 83.129 L 242.450 68.857 245.449 71.929 C 247.098 73.618,252.081 78.694,256.523 83.210 M148.600 162.058 C 148.160 162.297,146.745 163.596,145.456 164.946 C 139.713 170.957,119.881 191.324,100.806 210.799 C 95.743 215.969,91.600 220.256,91.600 220.328 C 91.600 220.642,90.417 221.600,90.029 221.600 C 89.793 221.600,89.600 221.793,89.600 222.029 C 89.600 222.582,88.582 223.600,88.029 223.600 C 87.793 223.600,87.600 223.779,87.600 223.997 C 87.600 224.215,85.845 226.140,83.700 228.273 C 81.555 230.407,79.845 232.298,79.900 232.476 C 79.955 232.654,79.773 232.800,79.496 232.800 C 79.218 232.800,78.543 233.365,77.996 234.055 C 77.448 234.745,76.663 235.600,76.251 235.955 C 75.839 236.310,75.299 236.833,75.051 237.119 C 74.395 237.873,71.975 240.189,70.700 241.282 C 69.785 242.067,69.600 242.547,69.600 244.141 L 69.600 246.056 78.100 254.584 C 82.775 259.274,87.087 263.626,87.683 264.256 C 88.279 264.885,88.963 265.580,89.203 265.800 C 90.349 266.848,92.800 269.703,92.800 269.990 C 92.800 270.168,93.249 270.426,93.798 270.564 C 94.346 270.701,94.775 270.946,94.750 271.107 C 94.624 271.929,94.861 272.400,95.400 272.400 C 95.730 272.400,96.000 272.535,96.000 272.700 C 96.005 275.506,100.666 276.105,102.742 273.567 C 103.537 272.595,104.685 271.323,105.294 270.740 C 105.902 270.156,106.400 269.553,106.400 269.398 C 106.400 269.243,108.200 267.337,110.400 265.161 C 112.600 262.986,114.400 261.024,114.400 260.803 C 114.400 260.581,114.593 260.400,114.829 260.400 C 115.267 260.400,116.400 259.425,116.400 259.048 C 116.400 258.933,117.075 258.178,117.900 257.372 C 118.725 256.565,119.351 255.733,119.290 255.523 C 119.230 255.312,119.340 255.239,119.535 255.360 C 119.932 255.605,123.457 252.005,123.300 251.514 C 123.245 251.341,123.398 251.200,123.641 251.200 C 124.088 251.200,127.374 247.912,140.938 233.888 C 149.784 224.744,148.670 225.030,153.947 230.546 C 164.438 241.512,175.138 252.400,175.424 252.400 C 175.507 252.400,176.886 253.768,178.488 255.440 C 180.089 257.112,184.595 261.736,188.500 265.716 C 192.405 269.695,195.600 272.985,195.600 273.026 C 195.600 273.319,202.912 280.400,203.215 280.400 C 203.427 280.400,203.600 280.569,203.600 280.776 C 203.600 280.983,206.165 283.738,209.300 286.898 C 212.435 290.058,215.955 293.669,217.123 294.922 C 218.290 296.175,219.415 297.200,219.623 297.200 C 219.830 297.200,219.955 297.350,219.900 297.532 C 219.845 297.715,220.655 298.698,221.700 299.717 C 222.745 300.736,223.600 301.757,223.600 301.985 C 223.600 302.213,223.793 302.400,224.029 302.400 C 224.427 302.400,225.600 303.362,225.600 303.689 C 225.600 303.769,228.975 307.270,233.100 311.468 C 241.709 320.230,245.599 324.359,245.603 324.736 C 245.620 326.524,250.726 326.846,252.266 325.156 C 252.890 324.472,254.345 322.910,255.500 321.685 C 256.655 320.459,257.601 319.354,257.603 319.229 C 257.605 319.103,258.421 318.190,259.416 317.200 C 260.412 316.210,261.445 315.173,261.713 314.894 C 263.167 313.384,271.456 305.122,273.184 303.461 C 274.293 302.394,275.200 301.355,275.200 301.152 C 275.200 300.949,275.650 300.578,276.200 300.327 C 276.750 300.077,277.200 299.725,277.200 299.545 C 277.200 299.366,277.811 298.663,278.558 297.983 C 281.069 295.699,280.836 294.899,276.336 290.335 C 274.171 288.140,272.400 286.176,272.400 285.972 C 272.400 285.767,272.231 285.600,272.025 285.600 C 271.565 285.600,262.400 276.394,262.400 275.932 C 262.400 275.749,262.207 275.600,261.971 275.600 C 261.736 275.600,261.286 275.343,260.971 275.029 C 260.657 274.714,260.400 274.264,260.400 274.029 C 260.400 273.793,260.207 273.600,259.971 273.600 C 259.538 273.600,258.400 272.627,258.400 272.256 C 258.400 272.062,252.972 266.391,243.000 256.167 C 233.048 245.964,215.518 228.054,208.000 220.408 C 200.115 212.390,192.400 204.391,192.400 204.236 C 192.400 204.189,186.717 198.402,179.772 191.376 C 163.400 174.814,154.400 165.430,154.400 164.924 C 154.400 163.286,150.181 161.201,148.600 162.058 M159.300 172.885 C 164.305 177.996,168.400 182.205,168.400 182.238 C 168.400 182.270,172.045 185.986,176.500 190.496 C 180.955 195.005,187.660 201.888,191.400 205.791 C 200.146 214.918,207.134 222.117,216.600 231.750 C 220.780 236.004,228.250 243.668,233.200 248.783 C 238.150 253.897,245.170 261.118,248.800 264.829 C 252.430 268.539,257.780 274.056,260.690 277.088 C 263.599 280.119,268.774 285.440,272.190 288.911 C 275.605 292.382,278.400 295.331,278.400 295.463 C 278.400 295.760,276.849 297.374,266.000 308.372 C 261.270 313.166,255.619 318.915,253.443 321.146 C 250.040 324.636,249.396 325.133,248.843 324.702 C 247.602 323.734,237.708 313.697,209.700 284.995 C 205.905 281.106,202.800 277.761,202.800 277.562 C 202.800 277.363,202.607 277.200,202.371 277.200 C 201.818 277.200,200.800 276.182,200.800 275.629 C 200.800 275.393,200.560 275.200,200.268 275.200 C 199.975 275.200,199.505 274.770,199.224 274.244 C 198.942 273.718,198.282 273.058,197.756 272.776 C 197.230 272.495,196.800 272.133,196.800 271.972 C 196.800 271.811,193.785 268.626,190.100 264.893 C 186.415 261.161,177.595 252.230,170.500 245.046 C 163.405 237.863,157.600 231.901,157.600 231.798 C 157.600 231.470,152.275 226.400,151.930 226.400 C 151.749 226.400,151.600 226.218,151.600 225.996 C 151.600 225.774,151.068 225.036,150.417 224.355 L 149.234 223.117 145.596 226.859 C 141.875 230.684,124.519 248.376,108.865 264.300 C 104.053 269.195,99.817 273.200,99.453 273.200 C 99.088 273.200,96.767 271.134,94.295 268.610 C 91.823 266.085,85.525 259.675,80.300 254.364 C 75.075 249.054,70.800 244.505,70.800 244.255 C 70.800 244.006,72.773 241.821,75.184 239.401 C 77.596 236.980,81.292 233.200,83.399 231.000 C 85.506 228.800,93.063 221.060,100.193 213.800 C 107.322 206.540,114.986 198.710,117.223 196.400 C 130.222 182.979,149.458 163.613,149.800 163.603 C 150.020 163.597,154.295 167.773,159.300 172.885 M148.931 249.140 C 147.836 249.468,146.344 250.823,143.800 253.803 C 142.700 255.091,140.360 257.614,138.600 259.410 C 136.840 261.206,132.340 265.881,128.600 269.800 C 124.860 273.718,119.734 278.989,117.208 281.513 C 112.758 285.960,112.614 286.159,112.547 287.939 L 112.478 289.775 119.188 296.470 C 122.879 300.151,126.341 303.689,126.881 304.331 C 127.421 304.973,128.254 305.708,128.731 305.963 C 129.209 306.219,129.600 306.615,129.600 306.843 C 129.600 307.385,130.624 308.400,131.171 308.400 C 131.407 308.400,131.600 308.586,131.600 308.813 C 131.600 309.373,133.888 311.579,134.173 311.294 C 134.298 311.169,134.400 311.277,134.400 311.533 C 134.400 312.116,135.853 313.600,136.424 313.600 C 136.657 313.600,136.778 313.735,136.692 313.900 C 136.490 314.292,139.873 317.594,140.171 317.295 C 140.297 317.170,140.400 317.270,140.400 317.520 C 140.400 318.092,142.633 320.400,143.187 320.400 C 143.414 320.400,143.600 320.586,143.600 320.813 C 143.600 321.367,145.908 323.600,146.480 323.600 C 146.730 323.600,146.828 323.705,146.700 323.833 C 146.364 324.169,147.967 325.678,148.479 325.507 C 148.737 325.421,148.648 325.105,148.254 324.711 C 147.894 324.351,147.600 323.941,147.600 323.800 C 147.600 323.385,146.495 322.400,146.029 322.400 C 145.793 322.400,145.600 322.207,145.600 321.971 C 145.600 321.418,144.582 320.400,144.029 320.400 C 143.793 320.400,143.600 320.207,143.600 319.971 C 143.600 319.418,142.582 318.400,142.029 318.400 C 141.793 318.400,141.600 318.207,141.600 317.971 C 141.600 317.418,140.582 316.400,140.029 316.400 C 139.793 316.400,139.600 316.207,139.600 315.971 C 139.600 315.418,138.582 314.400,138.029 314.400 C 137.793 314.400,137.600 314.130,137.600 313.800 C 137.600 313.470,137.407 313.200,137.171 313.200 C 136.705 313.200,135.600 312.215,135.600 311.800 C 135.600 311.385,134.495 310.400,134.029 310.400 C 133.793 310.400,133.600 310.160,133.600 309.868 C 133.600 309.575,133.150 309.094,132.600 308.800 C 132.050 308.506,131.600 308.102,131.600 307.904 C 131.600 307.405,130.550 306.400,130.029 306.400 C 129.793 306.400,129.600 306.207,129.600 305.971 C 129.600 305.418,128.582 304.400,128.029 304.400 C 127.793 304.400,127.600 304.207,127.600 303.971 C 127.600 303.418,126.582 302.400,126.029 302.400 C 125.793 302.400,125.600 302.207,125.600 301.971 C 125.600 301.418,124.582 300.400,124.029 300.400 C 123.793 300.400,123.600 300.207,123.600 299.971 C 123.600 299.418,122.582 298.400,122.029 298.400 C 121.793 298.400,121.595 298.175,121.588 297.900 C 121.582 297.625,119.782 295.602,117.588 293.405 C 112.238 288.046,112.097 288.787,120.000 280.750 C 123.520 277.171,126.400 274.097,126.400 273.921 C 126.400 273.744,126.670 273.600,127.000 273.600 C 127.330 273.600,127.600 273.375,127.601 273.100 C 127.603 272.459,149.445 250.400,150.078 250.400 C 150.340 250.400,151.225 251.120,152.045 252.000 C 152.866 252.880,153.732 253.600,153.969 253.600 C 154.206 253.600,154.400 253.764,154.400 253.965 C 154.400 254.165,158.731 258.710,164.024 264.065 C 179.462 279.681,180.400 280.645,180.400 280.889 C 180.400 281.017,187.330 288.086,195.800 296.597 C 204.270 305.109,211.200 312.237,211.200 312.437 C 211.200 312.637,211.380 312.800,211.601 312.800 C 211.822 312.800,212.677 313.556,213.501 314.480 C 215.270 316.462,221.240 322.675,228.900 330.504 C 231.925 333.595,234.400 336.247,234.400 336.395 C 234.400 336.543,234.850 336.906,235.400 337.200 C 237.174 338.150,236.676 339.206,232.400 343.561 C 230.200 345.801,228.400 347.806,228.400 348.017 C 228.400 348.228,228.207 348.400,227.971 348.400 C 227.418 348.400,226.400 349.418,226.400 349.971 C 226.400 350.207,226.207 350.400,225.971 350.400 C 225.418 350.400,224.400 351.418,224.400 351.971 C 224.400 352.207,224.220 352.400,224.000 352.400 C 223.780 352.400,222.880 353.120,222.000 354.000 C 221.120 354.880,220.400 355.780,220.400 356.000 C 220.400 356.220,220.207 356.400,219.971 356.400 C 219.418 356.400,218.400 357.418,218.400 357.971 C 218.400 358.207,218.207 358.400,217.971 358.400 C 217.418 358.400,216.400 359.418,216.400 359.971 C 216.400 360.207,216.207 360.400,215.971 360.400 C 215.418 360.400,214.400 361.418,214.400 361.971 C 214.400 362.207,214.207 362.400,213.971 362.400 C 213.418 362.400,212.400 363.418,212.400 363.971 C 212.400 364.207,212.130 364.400,211.800 364.400 C 211.470 364.400,211.200 364.550,211.200 364.733 C 211.200 365.243,200.165 376.400,199.660 376.400 C 199.417 376.400,194.281 371.450,188.247 365.400 C 178.619 355.747,176.400 353.727,176.400 354.614 C 176.400 354.732,178.155 356.601,180.300 358.768 C 182.445 360.935,185.640 364.264,187.400 366.165 C 193.145 372.370,196.175 375.402,196.521 375.290 C 196.707 375.230,196.745 375.366,196.604 375.593 C 196.464 375.820,196.631 376.114,196.975 376.246 C 197.319 376.378,197.600 376.717,197.600 377.000 C 197.600 377.605,198.480 378.000,199.829 378.000 C 200.460 378.000,201.380 377.366,202.496 376.160 C 203.433 375.149,205.145 373.324,206.300 372.107 C 207.455 370.889,208.400 369.814,208.400 369.718 C 208.400 369.465,209.502 368.400,209.764 368.400 C 209.886 368.400,210.934 367.394,212.093 366.165 C 213.252 364.936,216.315 361.746,218.900 359.075 C 221.485 356.404,223.600 353.990,223.600 353.710 C 223.600 353.429,223.742 353.245,223.916 353.300 C 224.190 353.386,235.725 341.976,237.100 340.258 C 237.780 339.408,237.730 337.787,237.000 337.057 C 236.670 336.727,236.400 336.358,236.400 336.237 C 236.400 336.116,233.475 333.068,229.900 329.464 C 226.325 325.860,222.538 321.986,221.484 320.856 C 220.430 319.725,219.305 318.800,218.984 318.800 C 218.663 318.800,218.445 318.623,218.500 318.406 C 218.603 318.001,212.231 311.277,199.100 297.935 C 194.975 293.743,191.600 290.153,191.600 289.957 C 191.600 289.761,191.330 289.600,191.000 289.600 C 190.670 289.600,190.400 289.407,190.400 289.171 C 190.400 288.633,189.389 287.600,188.862 287.600 C 188.645 287.600,188.400 287.401,188.319 287.157 C 188.173 286.719,182.286 280.622,166.400 264.458 C 161.890 259.869,156.689 254.468,154.842 252.457 C 151.459 248.774,151.005 248.519,148.931 249.140 M148.950 325.656 C 148.512 326.221,149.675 327.792,150.167 327.300 C 150.295 327.172,150.400 327.277,150.400 327.533 C 150.400 327.790,150.715 328.331,151.100 328.735 C 151.485 329.139,153.022 330.759,154.516 332.335 C 156.010 333.911,157.416 335.200,157.640 335.200 C 157.864 335.200,157.956 335.348,157.844 335.529 C 157.617 335.896,158.990 337.200,159.605 337.200 C 159.822 337.200,159.955 337.425,159.900 337.700 C 159.845 337.975,159.980 338.181,160.200 338.157 C 160.595 338.115,161.906 339.317,162.100 339.900 C 162.155 340.065,162.335 340.155,162.500 340.100 C 162.665 340.045,162.800 340.178,162.800 340.395 C 162.800 341.010,164.104 342.383,164.471 342.156 C 164.652 342.044,164.800 342.233,164.800 342.576 C 164.800 342.919,164.980 343.200,165.200 343.200 C 165.420 343.200,165.600 342.840,165.600 342.400 C 165.600 341.956,165.333 341.600,165.000 341.600 C 164.670 341.600,164.400 341.407,164.400 341.171 C 164.400 340.618,163.382 339.600,162.829 339.600 C 162.593 339.600,162.400 339.424,162.400 339.208 C 162.400 338.992,159.549 335.974,156.064 332.501 C 152.580 329.028,149.648 325.945,149.550 325.649 C 149.401 325.202,149.300 325.203,148.950 325.656 M166.000 343.551 C 166.000 343.798,166.180 344.000,166.400 344.000 C 166.620 344.000,166.800 344.270,166.800 344.600 C 166.800 344.930,167.070 345.200,167.400 345.200 C 167.730 345.200,167.955 345.350,167.900 345.532 C 167.845 345.715,168.655 346.698,169.700 347.717 C 170.745 348.736,171.600 349.638,171.600 349.721 C 171.600 349.982,175.108 353.600,175.360 353.600 C 175.815 353.600,175.598 352.807,174.929 352.025 C 174.559 351.594,174.109 351.332,173.929 351.444 C 173.748 351.556,173.600 351.432,173.600 351.169 C 173.600 350.907,173.150 350.275,172.600 349.765 C 172.050 349.255,171.600 348.763,171.600 348.672 C 171.600 348.469,167.625 344.411,166.682 343.651 C 166.237 343.293,166.000 343.258,166.000 343.551 M175.788 353.620 C 175.407 354.235,175.928 354.632,176.442 354.118 C 176.729 353.831,176.736 353.607,176.462 353.439 C 176.239 353.300,175.935 353.382,175.788 353.620 " stroke="none" fill="#95d4e4" fill-rule="evenodd"/><path id="path1" d="M228.857 82.554 C 221.370 90.059,214.289 97.267,213.122 98.572 C 211.955 99.876,205.150 106.862,198.000 114.096 C 190.850 121.330,183.470 128.840,181.600 130.786 C 179.730 132.732,174.960 137.672,171.000 141.763 C 167.040 145.854,163.747 149.446,163.681 149.745 C 163.616 150.044,166.586 153.356,170.281 157.105 C 173.977 160.855,180.270 167.315,184.268 171.461 C 188.265 175.608,195.285 182.811,199.868 187.468 C 207.256 194.976,221.845 209.888,241.400 229.918 C 244.920 233.524,251.220 239.945,255.400 244.189 C 259.580 248.432,264.884 253.861,267.186 256.252 C 269.488 258.643,275.940 265.256,281.524 270.948 L 291.677 281.295 300.598 272.225 C 305.504 267.236,310.955 261.679,312.712 259.877 C 314.469 258.075,316.693 255.866,317.653 254.968 C 319.369 253.366,326.253 246.328,343.883 228.156 C 348.769 223.120,356.810 214.865,361.754 209.812 C 367.861 203.569,370.646 200.454,370.444 200.093 C 370.045 199.379,357.245 186.187,329.341 157.730 C 313.916 141.999,308.791 136.748,303.255 131.000 C 301.136 128.800,292.948 120.430,285.058 112.400 C 268.674 95.723,257.744 84.570,248.735 75.332 L 242.469 68.908 228.857 82.554 " stroke="none" fill="#0494d4" fill-rule="evenodd"/><path id="path2" d="M149.133 251.975 C 149.060 252.182,141.170 260.296,131.600 270.008 C 122.030 279.719,114.150 287.800,114.089 287.966 C 114.028 288.132,115.173 289.512,116.634 291.034 C 119.559 294.080,148.472 323.589,154.200 329.374 C 162.141 337.395,188.714 364.556,193.945 370.000 L 199.518 375.800 204.261 371.000 C 220.451 354.615,235.017 339.420,235.122 338.809 C 235.243 338.095,232.263 334.937,213.410 315.800 C 208.858 311.180,203.034 305.239,200.467 302.597 C 197.900 299.956,187.694 289.516,177.787 279.397 C 167.879 269.279,157.721 258.885,155.213 256.300 C 151.070 252.030,149.508 250.919,149.133 251.975 " stroke="none" fill="#044c64" fill-rule="evenodd"/><path id="path3" d="M145.852 168.105 C 143.901 170.137,139.306 174.860,135.642 178.600 C 123.242 191.257,93.824 221.380,89.800 225.542 C 87.600 227.817,82.946 232.577,79.457 236.119 C 70.970 244.736,71.408 243.848,74.141 246.902 C 75.371 248.276,81.558 254.678,87.889 261.128 L 99.402 272.856 105.280 266.928 C 113.996 258.137,124.416 247.510,137.132 234.444 C 143.365 228.040,148.765 222.797,149.132 222.793 C 149.499 222.790,151.742 224.815,154.116 227.293 C 156.490 229.772,164.230 237.652,171.316 244.804 C 178.402 251.956,190.230 263.990,197.600 271.545 C 204.970 279.100,216.942 291.339,224.204 298.741 C 231.466 306.143,239.926 314.831,243.004 318.046 C 246.082 321.262,248.780 323.919,249.000 323.952 C 249.220 323.984,255.790 317.613,263.600 309.794 L 277.800 295.576 266.800 284.394 C 260.750 278.244,254.360 271.642,252.600 269.723 C 250.840 267.804,243.730 260.494,236.800 253.478 C 229.870 246.462,224.110 240.577,224.000 240.400 C 223.789 240.061,199.409 215.029,193.600 209.188 C 191.730 207.307,187.320 202.720,183.800 198.993 C 180.280 195.266,174.070 188.860,170.000 184.756 C 165.930 180.652,159.743 174.393,156.251 170.847 C 152.760 167.301,149.790 164.402,149.651 164.405 C 149.513 164.408,147.803 166.073,145.852 168.105 M149.133 251.166 C 148.990 251.560,131.260 269.790,120.300 280.813 C 116.615 284.519,113.600 287.815,113.600 288.138 C 113.600 288.461,116.345 291.520,119.700 294.936 C 123.055 298.352,128.230 303.705,131.200 306.831 C 134.170 309.958,137.564 313.435,138.743 314.558 C 139.921 315.681,142.171 317.925,143.743 319.544 C 145.314 321.162,150.875 326.803,156.100 332.077 C 161.325 337.352,165.600 341.832,165.600 342.034 C 165.600 342.235,165.886 342.400,166.236 342.400 C 166.828 342.400,163.111 338.377,154.200 329.375 C 148.416 323.532,119.540 294.060,116.634 291.034 C 115.173 289.512,114.028 288.132,114.089 287.966 C 114.150 287.800,122.030 279.719,131.600 270.008 C 141.170 260.296,149.060 252.182,149.133 251.975 C 149.508 250.919,151.070 252.030,155.213 256.300 C 157.721 258.885,167.879 269.279,177.787 279.397 C 187.694 289.516,197.901 299.956,200.470 302.597 C 211.686 314.132,220.694 323.200,220.937 323.200 C 221.311 323.200,211.011 312.551,188.600 289.767 C 184.420 285.518,176.140 277.050,170.200 270.951 C 149.179 249.364,149.634 249.792,149.133 251.166 M225.480 328.100 C 232.642 335.315,235.200 338.096,235.200 338.666 C 235.200 339.244,235.833 339.394,236.145 338.890 C 236.358 338.545,221.904 323.600,221.357 323.600 C 221.168 323.600,223.023 325.625,225.480 328.100 M221.962 352.894 C 214.835 360.212,206.876 368.354,204.275 370.988 L 199.547 375.775 189.874 365.804 C 174.209 349.657,169.199 344.667,168.925 344.942 C 168.783 345.084,168.877 345.200,169.133 345.200 C 169.390 345.200,169.600 345.440,169.600 345.732 C 169.600 346.025,170.050 346.506,170.600 346.800 C 171.150 347.094,171.600 347.575,171.600 347.868 C 171.600 348.160,171.870 348.400,172.200 348.400 C 172.530 348.400,172.800 348.566,172.800 348.768 C 172.800 349.154,178.506 355.091,191.671 368.405 L 199.543 376.365 204.471 371.425 C 209.806 366.077,220.898 354.768,229.742 345.659 C 232.790 342.519,235.202 339.869,235.102 339.769 C 235.002 339.669,229.089 345.575,221.962 352.894 M167.100 343.065 C 167.375 343.176,167.600 343.522,167.600 343.833 C 167.600 344.145,167.868 344.400,168.196 344.400 C 168.695 344.400,168.680 344.269,168.107 343.600 C 167.730 343.160,167.237 342.814,167.011 342.832 C 166.785 342.849,166.825 342.954,167.100 343.065 " stroke="none" fill="#3b949c" fill-rule="evenodd"/><path id="path4" d="M260.200 87.200 C 261.506 88.520,262.665 89.600,262.775 89.600 C 262.885 89.600,261.906 88.520,260.600 87.200 C 259.294 85.880,258.135 84.800,258.025 84.800 C 257.915 84.800,258.894 85.880,260.200 87.200 M135.346 177.908 C 127.616 185.768,119.461 194.090,117.223 196.400 C 114.986 198.710,107.322 206.540,100.193 213.800 C 93.063 221.060,85.506 228.800,83.399 231.000 C 81.292 233.200,77.596 236.980,75.184 239.401 C 72.773 241.821,70.800 244.006,70.800 244.255 C 70.800 244.505,75.075 249.054,80.300 254.364 C 85.525 259.675,91.823 266.085,94.295 268.610 C 96.767 271.134,99.088 273.200,99.453 273.200 C 99.817 273.200,104.053 269.195,108.865 264.300 C 124.519 248.376,141.875 230.684,145.596 226.859 L 149.234 223.117 150.417 224.355 C 151.068 225.036,151.600 225.774,151.600 225.996 C 151.600 226.218,151.749 226.400,151.930 226.400 C 152.275 226.400,157.600 231.470,157.600 231.798 C 157.600 231.901,163.405 237.863,170.500 245.046 C 177.595 252.230,186.415 261.161,190.100 264.893 C 193.785 268.626,196.800 271.811,196.800 271.972 C 196.800 272.133,197.230 272.495,197.756 272.776 C 198.282 273.058,198.942 273.718,199.224 274.244 C 199.505 274.770,199.975 275.200,200.268 275.200 C 200.560 275.200,200.800 275.393,200.800 275.629 C 200.800 276.182,201.818 277.200,202.371 277.200 C 202.607 277.200,202.800 277.363,202.800 277.562 C 202.800 277.761,205.905 281.106,209.700 284.995 C 237.708 313.697,247.602 323.734,248.843 324.702 C 249.396 325.133,250.040 324.636,253.443 321.146 C 255.619 318.915,261.270 313.166,266.000 308.372 C 276.849 297.374,278.400 295.760,278.400 295.463 C 278.400 295.331,275.605 292.382,272.190 288.911 C 268.774 285.440,263.599 280.119,260.690 277.088 C 257.780 274.056,252.430 268.539,248.800 264.829 C 245.170 261.118,238.150 253.897,233.200 248.783 C 228.250 243.668,220.780 236.004,216.600 231.750 C 207.134 222.117,200.146 214.918,191.400 205.791 C 187.660 201.888,180.955 195.005,176.500 190.496 C 172.045 185.986,168.400 182.270,168.400 182.238 C 168.400 181.928,150.100 163.594,149.800 163.603 C 149.580 163.610,143.076 170.047,135.346 177.908 M156.251 170.847 C 159.743 174.393,165.930 180.652,170.000 184.756 C 174.070 188.860,180.280 195.266,183.800 198.993 C 187.320 202.720,191.730 207.307,193.600 209.188 C 199.409 215.029,223.789 240.061,224.000 240.400 C 224.110 240.577,229.870 246.462,236.800 253.478 C 243.730 260.494,250.840 267.804,252.600 269.723 C 254.360 271.642,260.750 278.244,266.800 284.394 L 277.800 295.576 263.600 309.794 C 255.790 317.613,249.220 323.984,249.000 323.952 C 248.780 323.919,246.082 321.262,243.004 318.046 C 239.926 314.831,231.466 306.143,224.204 298.741 C 216.942 291.339,204.970 279.100,197.600 271.545 C 190.230 263.990,178.402 251.956,171.316 244.804 C 164.230 237.652,156.490 229.772,154.116 227.293 C 151.742 224.815,149.499 222.790,149.132 222.793 C 148.765 222.797,143.365 228.040,137.132 234.444 C 124.416 247.510,113.996 258.137,105.280 266.928 L 99.402 272.856 87.889 261.128 C 81.558 254.678,75.371 248.276,74.141 246.902 C 71.408 243.848,70.970 244.736,79.457 236.119 C 82.946 232.577,87.600 227.817,89.800 225.542 C 93.824 221.380,123.242 191.257,135.642 178.600 C 139.306 174.860,143.901 170.137,145.852 168.105 C 147.803 166.073,149.513 164.408,149.651 164.405 C 149.790 164.402,152.760 167.301,156.251 170.847 M138.400 261.672 C 132.570 267.582,127.733 272.638,127.652 272.908 C 127.571 273.179,130.254 270.610,133.615 267.200 C 136.975 263.790,141.893 258.801,144.543 256.114 C 147.193 253.426,149.280 251.160,149.180 251.078 C 149.081 250.995,144.230 255.763,138.400 261.672 M156.800 257.115 C 156.800 257.284,157.160 257.730,157.600 258.107 C 158.040 258.484,158.400 258.654,158.400 258.485 C 158.400 258.316,158.040 257.870,157.600 257.493 C 157.160 257.116,156.800 256.946,156.800 257.115 M164.249 264.900 C 167.115 267.815,170.487 271.260,171.741 272.555 C 172.996 273.851,174.106 274.827,174.209 274.725 C 174.441 274.492,159.834 259.600,159.374 259.600 C 159.189 259.600,161.383 261.985,164.249 264.900 M126.102 274.385 C 125.698 275.032,125.711 275.132,126.175 274.954 C 126.780 274.722,127.367 273.600,126.884 273.600 C 126.723 273.600,126.372 273.953,126.102 274.385 M176.421 277.339 C 177.619 278.516,178.679 279.412,178.776 279.330 C 179.030 279.115,175.105 275.200,174.636 275.200 C 174.419 275.200,175.222 276.163,176.421 277.339 M119.863 280.800 C 119.275 281.460,118.911 282.000,119.054 282.000 C 119.196 282.000,119.829 281.460,120.460 280.800 C 121.091 280.140,121.455 279.600,121.270 279.600 C 121.084 279.600,120.451 280.140,119.863 280.800 M179.200 279.902 C 179.200 280.122,179.470 280.526,179.800 280.800 C 180.135 281.078,180.400 281.121,180.400 280.898 C 180.400 280.678,180.130 280.274,179.800 280.000 C 179.465 279.722,179.200 279.679,179.200 279.902 M184.800 285.638 C 184.800 286.031,186.755 288.180,186.934 287.983 C 187.025 287.882,186.582 287.260,185.950 286.600 C 185.318 285.940,184.801 285.507,184.800 285.638 M188.000 288.999 C 188.000 289.380,190.788 292.146,190.976 291.953 C 191.059 291.869,190.423 291.107,189.563 290.259 C 188.703 289.412,188.000 288.845,188.000 288.999 M115.217 291.033 C 116.198 292.041,118.033 293.886,119.295 295.133 C 120.556 296.380,121.591 297.625,121.595 297.900 C 121.598 298.175,121.793 298.400,122.029 298.400 C 122.582 298.400,123.600 299.418,123.600 299.971 C 123.600 300.207,123.793 300.400,124.029 300.400 C 124.582 300.400,125.600 301.418,125.600 301.971 C 125.600 302.207,125.855 302.400,126.167 302.400 C 126.478 302.400,126.814 302.625,126.912 302.900 C 127.010 303.175,127.199 303.301,127.333 303.179 C 127.609 302.928,114.292 289.200,113.772 289.200 C 113.586 289.200,114.236 290.025,115.217 291.033 M196.058 297.144 C 196.283 297.772,211.200 312.794,211.200 312.392 C 211.200 312.194,207.761 308.592,203.558 304.389 C 199.355 300.186,195.980 296.925,196.058 297.144 M127.600 303.986 C 127.600 304.214,127.793 304.400,128.029 304.400 C 128.582 304.400,129.600 305.418,129.600 305.971 C 129.600 306.207,129.901 306.400,130.270 306.400 C 130.819 306.400,130.765 306.213,129.970 305.363 C 128.777 304.088,127.600 303.404,127.600 303.986 M211.600 313.029 C 211.600 313.155,212.815 314.523,214.300 316.070 C 220.147 322.159,223.600 325.590,223.590 325.302 C 223.584 325.136,221.064 322.396,217.990 319.213 C 214.915 316.029,212.400 313.284,212.400 313.113 C 212.400 312.941,212.220 312.800,212.000 312.800 C 211.780 312.800,211.600 312.903,211.600 313.029 M147.600 323.805 C 147.600 323.944,147.872 324.329,148.204 324.661 C 148.536 324.993,148.688 325.458,148.542 325.694 C 148.384 325.949,148.465 326.007,148.739 325.838 C 149.064 325.637,149.082 325.327,148.799 324.798 C 148.379 324.013,147.600 323.368,147.600 323.805 M149.600 326.000 C 149.600 326.220,149.799 326.400,150.043 326.400 C 150.286 326.400,150.396 326.633,150.287 326.918 C 150.172 327.217,150.397 327.460,150.818 327.491 C 151.488 327.542,151.479 327.467,150.702 326.573 C 149.766 325.497,149.600 325.410,149.600 326.000 M227.093 329.200 C 227.470 329.640,227.916 330.000,228.085 330.000 C 228.254 330.000,228.084 329.640,227.707 329.200 C 227.330 328.760,226.884 328.400,226.715 328.400 C 226.546 328.400,226.716 328.760,227.093 329.200 M154.293 330.800 C 154.670 331.240,155.116 331.600,155.285 331.600 C 155.454 331.600,155.284 331.240,154.907 330.800 C 154.530 330.360,154.084 330.000,153.915 330.000 C 153.746 330.000,153.916 330.360,154.293 330.800 M232.593 334.793 C 233.448 335.669,234.216 336.318,234.298 336.235 C 234.468 336.066,231.597 333.200,231.257 333.200 C 231.137 333.200,231.737 333.917,232.593 334.793 M235.700 339.065 C 235.425 339.176,235.200 339.440,235.200 339.651 C 235.200 339.863,232.726 342.559,229.703 345.641 C 224.129 351.325,223.218 352.400,223.980 352.400 C 224.211 352.400,224.400 352.207,224.400 351.971 C 224.400 351.736,224.657 351.286,224.971 350.971 C 225.286 350.657,225.736 350.400,225.971 350.400 C 226.207 350.400,226.400 350.207,226.400 349.971 C 226.400 349.418,227.418 348.400,227.971 348.400 C 228.207 348.400,228.400 348.228,228.400 348.017 C 228.400 347.806,230.200 345.801,232.400 343.561 C 235.682 340.218,237.011 338.607,236.300 338.832 C 236.245 338.849,235.975 338.954,235.700 339.065 M165.600 343.000 C 165.600 343.330,165.825 343.555,166.100 343.500 C 166.375 343.445,166.557 343.619,166.505 343.886 C 166.450 344.166,166.661 344.275,167.005 344.143 C 167.744 343.859,167.748 343.691,167.029 342.971 C 166.285 342.228,165.600 342.242,165.600 343.000 M167.822 345.088 C 167.676 345.466,167.688 345.646,167.846 345.487 C 168.005 345.328,168.465 345.497,168.868 345.861 C 169.752 346.662,169.900 345.843,169.029 344.971 C 168.295 344.237,168.142 344.252,167.822 345.088 M170.000 346.717 C 170.000 347.133,170.864 348.000,171.280 348.000 C 171.869 348.000,171.608 347.398,170.800 346.893 C 170.360 346.618,170.000 346.539,170.000 346.717 M171.600 348.619 C 171.600 348.740,172.050 349.255,172.600 349.765 C 173.150 350.275,173.600 350.907,173.600 351.169 C 173.600 351.432,173.748 351.556,173.929 351.444 C 174.296 351.217,175.600 352.590,175.600 353.205 C 175.600 353.422,175.825 353.555,176.100 353.500 C 176.375 353.445,176.555 353.625,176.500 353.900 C 176.445 354.175,176.613 354.400,176.873 354.400 C 177.134 354.400,178.844 355.938,180.673 357.818 C 182.503 359.697,184.000 361.092,184.000 360.917 C 184.000 360.742,181.480 358.021,178.400 354.871 C 175.320 351.721,172.800 348.976,172.800 348.772 C 172.800 348.567,172.530 348.400,172.200 348.400 C 171.870 348.400,171.600 348.499,171.600 348.619 M184.400 361.382 C 184.400 361.662,186.403 363.600,186.693 363.600 C 186.834 363.600,186.432 363.060,185.800 362.400 C 184.667 361.218,184.400 361.023,184.400 361.382 M209.979 365.822 C 209.451 366.384,209.288 366.741,209.618 366.614 C 210.139 366.415,211.434 364.800,211.073 364.800 C 211.000 364.800,210.507 365.260,209.979 365.822 M205.093 370.800 C 204.716 371.240,204.546 371.600,204.715 371.600 C 204.884 371.600,205.330 371.240,205.707 370.800 C 206.084 370.360,206.254 370.000,206.085 370.000 C 205.916 370.000,205.470 370.360,205.093 370.800 M202.200 373.650 C 201.540 374.282,201.107 374.799,201.238 374.800 C 201.631 374.800,203.780 372.845,203.583 372.666 C 203.482 372.575,202.860 373.018,202.200 373.650 M200.000 375.800 C 199.722 376.135,199.679 376.400,199.902 376.400 C 200.122 376.400,200.526 376.130,200.800 375.800 C 201.078 375.465,201.121 375.200,200.898 375.200 C 200.678 375.200,200.274 375.470,200.000 375.800 " stroke="none" fill="#58a7b4" fill-rule="evenodd"/></g></svg>